# xmcd
#
# Track frame offsets: 
#        150
#        10480
#        23957
#        36127
#        49900
#        60172
#        71967
#        85385
#        99652
#        112560
#        126625
#        138597
#        149890
#        163415
#        177430
#        188035
#        212340
#
# Disc length: 3002 seconds
#
# Revision: 0
# Processed by: cddbd v1.4PL0 Copyright (c) Steve Scherf et al.
# Submitted via: ExactAudioCopy v0.95a4
#
DISCID=010bb811
DTITLE=Big Walter Horton - Memphis Recordings 1951
DYEAR=1991
DGENRE=Blues
TTITLE0=Jumpin' Blues
TTITLE1=Black Gal
TTITLE2=Hard Hearted Woman
TTITLE3=Go Long Woman
TTITLE4=What's The Matter With You (Take 1)
TTITLE5=Cotton Patch Hot Foot
TTITLE6=Little Boy Blue (Take 2)
TTITLE7=I'm In Love With You Baby (Walter's Blues) (Take 1)
TTITLE8=Blues In The Morning
TTITLE9=Now Tell Me Baby (Take 1)
TTITLE10=I'm In Love With You Baby (Walter's Blues) (Take 2)
TTITLE11=What's The Matter With You (Take 2)
TTITLE12=Little Boy Blue (Take 1)
TTITLE13=Now Tell Me Baby (Take 2)
TTITLE14=Have A Good Time
TTITLE15=Need My Baby (In A Session)
TTITLE16=Need My Baby (In A Session)
EXTD=
EXTT0=
EXTT1=
EXTT2=
EXTT3=
EXTT4=
EXTT5=
EXTT6=
EXTT7=
EXTT8=
EXTT9=
EXTT10=
EXTT11=
EXTT12=
EXTT13=
EXTT14=
EXTT15=
EXTT16=
PLAYORDER=
